<svg xmlns="http://www.w3.org/2000/svg" xmlns:xlink="http://www.w3.org/1999/xlink" width="166.242" height="79.344" viewBox="0 0 166.242 79.344"><defs><style>.a{fill:url(#a);}.b,.g{fill:none;}.b,.d{stroke:#2f2e41;}.b,.c{stroke-linecap:round;stroke-linejoin:round;}.c{fill:#a9919d;}.d{fill:url(#c);}.e,.f{stroke:none;}.f{fill:#2f2e41;}</style><linearGradient id="a" x1="0.266" y1="-0.88" x2="0.573" y2="0.957" gradientUnits="objectBoundingBox"><stop offset="0" stop-color="#627de6"/><stop offset="1" stop-color="#30baa8"/></linearGradient><radialGradient id="c" cx="0.357" cy="0.312" r="0.412" gradientUnits="objectBoundingBox"><stop offset="0" stop-color="#ff90a7"/><stop offset="1" stop-color="#f45383"/></radialGradient></defs><g transform="translate(0.605)"><path class="a" d="M22199.2,21317.2a11.42,11.42,0,0,1-4.291-4.924,17.728,17.728,0,0,1-1.574-7.414V21302a17.841,17.841,0,0,1,1.535-7.621,11.527,11.527,0,0,1,4.4-5.082,12.28,12.28,0,0,1,6.625-1.783,11.816,11.816,0,0,1,8.143,2.738,11.434,11.434,0,0,1,3.594,7.762h-5.293a7.556,7.556,0,0,0-1.918-4.756,6.347,6.347,0,0,0-4.525-1.459,6.2,6.2,0,0,0-5.322,2.529q-1.86,2.531-1.9,7.432v2.707q0,4.966,1.773,7.566a5.887,5.887,0,0,0,5.2,2.607,6.879,6.879,0,0,0,4.705-1.408,7.344,7.344,0,0,0,1.992-4.682h5.293a11.049,11.049,0,0,1-3.611,7.633,12.311,12.311,0,0,1-8.379,2.742A11.94,11.94,0,0,1,22199.2,21317.2Zm100.834,1.313v-30.57h19.842v4.283h-14.525v8.436h12.551v4.2h-12.551v9.365h14.672v4.285Zm-18.809,0v-26.287h-9.451v-4.283h24.25v4.283h-9.533v26.287Zm-32.023,0v-30.57h19.842v4.283h-14.525v8.436h12.557v4.2h-12.557v9.365h14.672v4.285Zm-9.467,0-6.129-11.762h-5.922v11.762h-5.312v-30.57h10.752q5.291,0,8.166,2.371a8.4,8.4,0,0,1,2.877,6.871,8.623,8.623,0,0,1-1.48,5.143,9.4,9.4,0,0,1-4.129,3.18l6.871,12.73v.275Zm-12.051-16.041h5.461a6.061,6.061,0,0,0,4.2-1.355,4.719,4.719,0,0,0,1.514-3.707,5.03,5.03,0,0,0-1.4-3.8,5.921,5.921,0,0,0-4.166-1.381h-5.607Z" transform="translate(-22156.211 -21247.211)"/><path class="a" d="M22296.26,21308.875a7.138,7.138,0,0,1-1.678-4.965v-.145a7.745,7.745,0,0,1,.773-3.494,5.544,5.544,0,0,1,2.16-2.395,6.044,6.044,0,0,1,3.2-.836,5.765,5.765,0,0,1,4.34,1.721,6.765,6.765,0,0,1,1.8,4.566l.01.7a7.87,7.87,0,0,1-.75,3.488,5.548,5.548,0,0,1-2.148,2.383,6.142,6.142,0,0,1-3.23.842A5.746,5.746,0,0,1,22296.26,21308.875Zm2.143-8.3a5.788,5.788,0,0,0-.854,3.449,5.331,5.331,0,0,0,.842,3.191,2.745,2.745,0,0,0,2.344,1.154,2.707,2.707,0,0,0,2.338-1.172,5.893,5.893,0,0,0,.836-3.432,5.267,5.267,0,0,0-.857-3.176,2.9,2.9,0,0,0-4.648-.016Zm-17.207,6.393v-7.486h-2.176v-2.193h2.176v-3.213h2.967v3.213h2.328v2.193h-2.328v7.375a1.621,1.621,0,0,0,.3,1.094,1.4,1.4,0,0,0,1.066.336,4.742,4.742,0,0,0,1.037-.123v2.293a7.337,7.337,0,0,1-1.951.281Q22281.2,21310.736,22281.2,21306.967Zm-13.441,2.637a3.625,3.625,0,0,1-1.258-2.811,3.742,3.742,0,0,1,1.57-3.24,7.6,7.6,0,0,1,4.482-1.129h1.822v-.869a2.307,2.307,0,0,0-.578-1.643,2.264,2.264,0,0,0-1.744-.611,2.615,2.615,0,0,0-1.66.506,1.564,1.564,0,0,0-.645,1.289h-2.967a3.313,3.313,0,0,1,.717-2.035,4.829,4.829,0,0,1,1.959-1.48,6.882,6.882,0,0,1,2.77-.539,5.528,5.528,0,0,1,3.7,1.166,4.164,4.164,0,0,1,1.42,3.275v5.961a6.746,6.746,0,0,0,.5,2.844v.207h-3.027a4.733,4.733,0,0,1-.342-1.232,5,5,0,0,1-6.713.342Zm2.539-4.74a1.86,1.86,0,0,0-.83,1.627,1.719,1.719,0,0,0,.566,1.357,2.18,2.18,0,0,0,1.52.51,3.428,3.428,0,0,0,1.656-.426,2.876,2.876,0,0,0,1.166-1.15v-2.488h-1.6A4.381,4.381,0,0,0,22270.293,21304.863Zm-31.225,2.1v-7.486h-2.172v-2.193h2.172v-3.213h2.965v3.213h2.328v2.193h-2.328v7.375a1.642,1.642,0,0,0,.3,1.094,1.41,1.41,0,0,0,1.07.336,4.785,4.785,0,0,0,1.037-.123v2.293a7.4,7.4,0,0,1-1.957.281Q22239.066,21310.736,22239.068,21306.967Zm-11.576,3.186a4.793,4.793,0,0,1-1.975-1.615,3.822,3.822,0,0,1-.711-2.209h2.883a2.087,2.087,0,0,0,.795,1.621,3.1,3.1,0,0,0,1.941.566,3.014,3.014,0,0,0,1.783-.449,1.378,1.378,0,0,0,.605-1.166,1.336,1.336,0,0,0-.65-1.207,6.929,6.929,0,0,0-2.17-.729,11.261,11.261,0,0,1-2.523-.807,3.379,3.379,0,0,1-2.223-3.113,3.53,3.53,0,0,1,1.441-2.859,5.7,5.7,0,0,1,3.662-1.145,5.9,5.9,0,0,1,3.826,1.172,3.709,3.709,0,0,1,1.457,3.039h-2.967a1.821,1.821,0,0,0-.633-1.424,2.448,2.448,0,0,0-1.684-.566,2.652,2.652,0,0,0-1.592.449,1.417,1.417,0,0,0-.617,1.211,1.2,1.2,0,0,0,.572,1.061,7.74,7.74,0,0,0,2.322.762,11.039,11.039,0,0,1,2.736.92,3.949,3.949,0,0,1,1.48,1.273,3.266,3.266,0,0,1,.482,1.8,3.439,3.439,0,0,1-1.48,2.889,6.3,6.3,0,0,1-3.869,1.105A6.9,6.9,0,0,1,22227.492,21310.152Zm-14.25-1.193a6.445,6.445,0,0,1-1.75-4.729v-.365a7.856,7.856,0,0,1,.764-3.533,5.787,5.787,0,0,1,2.141-2.428,5.663,5.663,0,0,1,3.074-.863,5.184,5.184,0,0,1,4.172,1.721,7.293,7.293,0,0,1,1.469,4.869v1.2h-8.631a3.97,3.97,0,0,0,1.094,2.586,3.291,3.291,0,0,0,2.412.953,4.02,4.02,0,0,0,3.32-1.648l1.6,1.525a5.318,5.318,0,0,1-2.119,1.84,6.671,6.671,0,0,1-2.973.65A6.121,6.121,0,0,1,22213.242,21308.959Zm2.248-8.682a4.359,4.359,0,0,0-.959,2.377h5.648v-.219a3.593,3.593,0,0,0-.791-2.254,2.749,2.749,0,0,0-3.9.1Zm101.8,10.217v-8.557a2.735,2.735,0,0,0-.543-1.863,2.291,2.291,0,0,0-1.777-.605,2.844,2.844,0,0,0-2.67,1.627v9.4h-2.967v-13.207h2.793l.084,1.525a4.749,4.749,0,0,1,3.848-1.771q4.122,0,4.2,4.723v8.73Zm-28.344,0v-13.207h2.967v13.207Zm-28.018,0v-8.557a2.715,2.715,0,0,0-.543-1.863,2.282,2.282,0,0,0-1.773-.605,2.852,2.852,0,0,0-2.674,1.627v9.4h-2.967v-13.207h2.793l.09,1.525a4.728,4.728,0,0,1,3.84-1.771q4.131,0,4.2,4.723v8.73Zm-14.109,0v-13.207h2.967v13.207Zm-50.867,0v-17.777h5.25a8.212,8.212,0,0,1,4.178,1.055,7.112,7.112,0,0,1,2.826,2.973,9.477,9.477,0,0,1,1,4.424v.887a9.422,9.422,0,0,1-1.008,4.447,7.136,7.136,0,0,1-2.867,2.955,8.651,8.651,0,0,1-4.268,1.037Zm3.086-2.494h2.018a4.65,4.65,0,0,0,3.73-1.516,6.62,6.62,0,0,0,1.324-4.357v-.986a6.78,6.78,0,0,0-1.258-4.408,4.467,4.467,0,0,0-3.65-1.525h-2.164Zm90.156-13.033a1.558,1.558,0,0,1-.432-1.123,1.619,1.619,0,0,1,.432-1.148,1.923,1.923,0,0,1,2.484,0,1.583,1.583,0,0,1,.438,1.148,1.523,1.523,0,0,1-.437,1.123,1.949,1.949,0,0,1-2.484,0Zm-42.123,0a1.547,1.547,0,0,1-.437-1.123,1.607,1.607,0,0,1,.438-1.148,1.636,1.636,0,0,1,1.234-.455,1.686,1.686,0,0,1,1.25.455,1.607,1.607,0,0,1,.438,1.148,1.547,1.547,0,0,1-.437,1.123,1.667,1.667,0,0,1-1.25.447A1.618,1.618,0,0,1,22247.07,21294.967Z" transform="translate(-22156.211 -21277.211)"/><path class="b" d="M-22131.422-21133.156a118.417,118.417,0,0,1,25.135-2.8c13.643,0,12.8,2.365,26.863,2.8,14.08.441,14.518-2.008,29.313-2.268s14.424,1.795,29.719,2.1,16.738-2.213,31.316-2.432c14.547-.219,22.662,2.432,22.662,2.432" transform="translate(22131.422 21211.895)"/><g class="c" transform="translate(13.967 26.004)"><path class="e" d="M 1.096013307571411 47.63985061645508 L 0.05400368571281433 43.04260635375977 L -0.4604193866252899 0.5906974077224731 L 2.538689851760864 0.5132120847702026 L 2.139198541641235 43.04323577880859 L 1.096013307571411 47.63985061645508 Z"/><path class="f" d="M 2.033835649490356 1.026420593261719 L 0.0455172061920166 1.077789306640625 L 0.5533335208892822 42.98370361328125 L 1.096320986747742 45.37930679321289 L 1.639722585678101 42.98490524291992 L 2.033835649490356 1.026420593261719 M 3.043524980545044 -3.814697265625e-06 L 2.638674974441528 43.10156631469727 L 1.095705032348633 49.90038681030273 L -0.4453151226043701 43.10156631469727 L -0.9663650989532471 0.1035957336425781 L 3.043524980545044 -3.814697265625e-06 Z"/></g><g class="d"><circle class="e" cx="15" cy="15" r="15"/><circle class="g" cx="15" cy="15" r="14.5"/></g></g></svg>