<svg xmlns="http://www.w3.org/2000/svg" xmlns:xlink="http://www.w3.org/1999/xlink" width="479.491" height="300" viewBox="0 0 479.491 300"><defs><style>.a{fill:#f2f2f2;}.b{fill:#3f3d56;}.c{fill:#f253a3;}.d{fill:#30baa8;}.e{fill:url(#a);}.f{fill:#2f2e41;}.g{fill:#575a89;}.h,.k{fill:#627de6;}.h,.j{opacity:0.1;}.i{fill:#fbbebe;}.l{fill:#f1f1f1;}</style><linearGradient id="a" x2="0.699" y2="0.93" gradientUnits="objectBoundingBox"><stop offset="0" stop-color="#627de6"/><stop offset="1" stop-color="#30baa8"/></linearGradient></defs><g transform="translate(0 0)"><path class="a" d="M772.464,216.3C754.87,147.113,694.077,97.172,622.719,95.169,584.993,94.11,545.3,106.622,516.393,150.4c-51.666,78.267,3.175,132.352,41.409,158.051a239.241,239.241,0,0,1,49.45,44.446c25.826,30.646,75.508,68.729,134.679,9.06C784.819,318.712,784.185,262.381,772.464,216.3Z" transform="translate(-299.816 -95.108)"/><path class="b" d="M187.124,502.4c-.474-.7-.94-1.423-1.385-2.142l.719-.445c.439.71.9,1.422,1.367,2.114Z" transform="translate(-121.087 -328.759)"/><path class="c" d="M170.392,364.925c-.784-1.539-1.513-3.128-2.166-4.725l.782-.32c.645,1.575,1.363,3.143,2.137,4.661Zm-3.932-9.613c-.519-1.646-.975-3.334-1.355-5.017l.825-.186c.375,1.661.825,3.326,1.337,4.95Zm-2.29-10.129c-.24-1.706-.411-3.445-.511-5.171l.844-.049c.1,1.7.267,3.419.5,5.1Zm.246-10.347-.845-.02c.041-1.728.153-3.472.333-5.184l.841.089c-.178,1.69-.289,3.41-.329,5.115Zm1.077-10.186-.83-.158c.322-1.7.719-3.4,1.18-5.06l.815.226c-.455,1.64-.846,3.32-1.164,4.992Zm2.738-9.87-.793-.293c.6-1.619,1.271-3.234,2-4.8l.766.357c-.721,1.544-1.385,3.137-1.975,4.734ZM284,312.167c-.661-1.567-1.4-3.127-2.186-4.637l.749-.392c.8,1.531,1.546,3.112,2.215,4.7Zm-111.435-6.676-.734-.419c.856-1.5,1.786-2.979,2.763-4.4l.7.478C174.325,302.552,173.408,304.014,172.564,305.491Zm106.689-2.4c-.91-1.438-1.892-2.856-2.918-4.215l.675-.509c1.04,1.378,2.035,2.815,2.957,4.272Zm-100.889-6.046-.655-.534c1.09-1.338,2.25-2.647,3.445-3.891l.609.586C180.583,294.431,179.44,295.722,178.364,297.043Zm94.717-2.131c-1.134-1.271-2.334-2.51-3.568-3.683l.583-.613c1.25,1.189,2.467,2.445,3.616,3.733Zm-87.616-5.256-.559-.634c1.293-1.142,2.65-2.244,4.033-3.276l.506.677C188.08,287.442,186.741,288.53,185.465,289.656Zm80.191-1.806c-1.326-1.069-2.713-2.1-4.121-3.051l.475-.7c1.428.969,2.833,2.009,4.177,3.093Zm-71.982-4.321-.448-.717c1.464-.916,2.982-1.78,4.514-2.571l.388.751C196.617,281.773,195.118,282.626,193.675,283.529Zm63.5-1.433c-1.485-.838-3.021-1.623-4.566-2.334l.353-.768c1.566.72,3.123,1.517,4.628,2.366Zm-54.4-3.263-.324-.781c1.593-.662,3.233-1.264,4.874-1.792l.258.8C205.963,277.586,204.345,278.181,202.774,278.833Zm45.093-1.02c-1.6-.581-3.245-1.1-4.889-1.548l.222-.816c1.666.452,3.334.98,4.956,1.569ZM212.522,275.7l-.191-.823c1.679-.389,3.4-.713,5.106-.963l.122.836c-1.686.247-3.38.566-5.037.95Zm25.456-.574c-1.671-.308-3.379-.55-5.076-.72l.084-.841c1.72.172,3.451.418,5.145.73Zm-15.321-.907-.053-.844c1.719-.109,3.472-.147,5.195-.116l-.015.845c-1.7-.031-3.429.007-5.126.114Z" transform="translate(-108.289 -197.957)"/><path class="b" d="M453.523,378.882c-.226-.8-.472-1.615-.731-2.41l.8-.262c.263.806.512,1.628.741,2.443Z" transform="translate(-275.267 -257.398)"/><path class="c" d="M441.172,267.047h-.845c0-.846.015-1.7.044-2.551l.845.029C441.187,265.362,441.172,266.211,441.172,267.047Z" transform="translate(-268.071 -192.902)"/><path class="c" d="M442.131,164.7l-.841-.09c.181-1.7.426-3.419.728-5.1l.832.149C442.551,161.317,442.309,163.014,442.131,164.7Zm1.8-10.018-.819-.209c.423-1.659.912-3.322,1.453-4.944l.8.267c-.535,1.6-1.018,3.246-1.437,4.886Zm134.814-8.919c-.632-1.569-1.329-3.134-2.072-4.652l.76-.371c.752,1.536,1.457,3.12,2.1,4.707Zm-131.591-.741-.781-.325c.657-1.58,1.381-3.157,2.152-4.687l.755.38c-.761,1.513-1.477,3.071-2.126,4.632Zm127.117-8.4c-.85-1.461-1.764-2.91-2.717-4.308l.7-.476c.965,1.414,1.889,2.881,2.749,4.359Zm-122.538-.7-.726-.433c.876-1.468,1.818-2.924,2.8-4.329l.693.484c-.97,1.388-1.9,2.828-2.767,4.278Zm116.8-7.714c-1.051-1.327-2.162-2.631-3.3-3.877l.623-.571c1.154,1.261,2.279,2.581,3.343,3.923Zm-110.971-.633-.657-.532c1.078-1.33,2.218-2.637,3.387-3.885l.617.578C459.757,124.967,458.63,126.259,457.565,127.574Zm104.1-6.877c-1.229-1.164-2.514-2.3-3.821-3.369l.536-.653c1.323,1.085,2.623,2.232,3.866,3.409Zm-97.138-.554-.575-.62c1.255-1.162,2.568-2.294,3.9-3.364l.529.66c-1.319,1.058-2.618,2.176-3.858,3.325Zm89.266-5.9c-1.381-.977-2.815-1.916-4.261-2.791l.438-.723c1.464.885,2.915,1.836,4.312,2.824Zm-81.324-.463-.48-.7c1.407-.972,2.868-1.9,4.341-2.774l.429.728c-1.456.859-2.9,1.781-4.29,2.741Zm72.612-4.806c-1.507-.77-3.06-1.494-4.617-2.152l.33-.778c1.575.666,3.147,1.4,4.672,2.178Zm-63.848-.361-.376-.757c1.531-.76,3.11-1.475,4.692-2.123l.321.782c-1.563.641-3.123,1.346-4.636,2.1ZM535.7,105c-1.6-.544-3.241-1.038-4.879-1.466l.214-.818c1.658.433,3.319.932,4.938,1.483Zm-45.06-.25-.263-.8c1.625-.532,3.29-1.013,4.952-1.427l.2.82c-1.641.41-3.287.884-4.893,1.41Zm35.21-2.325c-1.662-.309-3.357-.561-5.037-.749l.094-.84c1.7.191,3.416.446,5.1.758Zm-25.335-.139-.145-.833c1.684-.293,3.4-.529,5.1-.7l.085.841c-1.683.17-3.38.4-5.044.693Zm15.22-1c-1.693-.069-3.414-.078-5.094-.028l-.026-.845c1.7-.051,3.441-.042,5.154.028Z" transform="translate(-268.626 -98.156)"/><path class="b" d="M771.359,221.249c-.226-.8-.471-1.617-.726-2.414l.8-.258c.258.807.505,1.629.735,2.443Z" transform="translate(-458.768 -166.392)"/><ellipse class="d" cx="14.08" cy="1.056" rx="14.08" ry="1.056" transform="translate(51.462 182.02)"/><ellipse class="d" cx="14.08" cy="1.056" rx="14.08" ry="1.056" transform="translate(163.75 130.981)"/><ellipse class="d" cx="14.08" cy="1.056" rx="14.08" ry="1.056" transform="translate(302.437 77.829)"/><rect class="b" width="59.875" height="0.845" transform="translate(268.602 117.756) rotate(-45)"/><rect class="b" width="71.104" height="0.845" transform="translate(185.222 123.166)"/><rect class="b" width="56.242" height="0.845" transform="translate(132.476 168.698) rotate(-45)"/><rect class="b" width="47.52" height="0.845" transform="translate(72.934 174.206)"/><rect class="b" width="66.78" height="0.845" transform="translate(12.796 226.778) rotate(-45)"/><path class="b" d="M177.172,505.411a7.815,7.815,0,1,1,7.815-7.815A7.815,7.815,0,0,1,177.172,505.411Zm0-14.784a6.969,6.969,0,1,0,6.969,6.969,6.969,6.969,0,0,0-6.969-6.969Z" transform="translate(-111.63 -322.968)"/><path class="b" d="M324.579,505.411a7.815,7.815,0,1,1,7.815-7.815,7.815,7.815,0,0,1-7.815,7.815Zm0-14.784a6.969,6.969,0,1,0,6.969,6.969,6.969,6.969,0,0,0-6.969-6.969Z" transform="translate(-196.733 -322.968)"/><path class="b" d="M442.839,384.653a7.815,7.815,0,1,1,7.815-7.815A7.815,7.815,0,0,1,442.839,384.653Zm0-14.784a6.969,6.969,0,1,0,6.969,6.969A6.969,6.969,0,0,0,442.839,369.869Z" transform="translate(-265.009 -253.25)"/><path class="b" d="M646.045,384.653a7.815,7.815,0,1,1,7.815-7.815A7.815,7.815,0,0,1,646.045,384.653Zm0-14.784a6.969,6.969,0,1,0,6.969,6.969A6.969,6.969,0,0,0,646.045,369.869Z" transform="translate(-382.327 -253.25)"/><path class="b" d="M770.967,258.9a7.815,7.815,0,1,1,7.815-7.815A7.815,7.815,0,0,1,770.967,258.9Zm0-14.784a6.969,6.969,0,1,0,6.969,6.969,6.969,6.969,0,0,0-6.969-6.969Z" transform="translate(-454.449 -180.647)"/><path class="b" d="M40.591,641.992a7.815,7.815,0,1,1,7.815-7.815A7.815,7.815,0,0,1,40.591,641.992Zm0-14.784a6.969,6.969,0,1,0,6.969,6.969,6.969,6.969,0,0,0-6.969-6.969Z" transform="translate(-32.777 -401.821)"/><path class="e" d="M168.615,399.173a14.08,14.08,0,0,0-14.08,14.08c0,7.776,14.08,33.44,14.08,33.44s14.08-25.664,14.08-33.44A14.08,14.08,0,0,0,168.615,399.173Zm0,21.472a7.392,7.392,0,1,1,7.392-7.392,7.392,7.392,0,0,1-7.392,7.392Z" transform="translate(-103.072 -270.656)"/><path class="e" d="M434.281,274.251a14.08,14.08,0,0,0-14.08,14.08c0,7.776,14.08,33.44,14.08,33.44s14.08-25.664,14.08-33.44a14.08,14.08,0,0,0-14.08-14.08Zm0,21.472a7.392,7.392,0,1,1,7.392-7.392,7.392,7.392,0,0,1-7.392,7.392Z" transform="translate(-256.451 -198.534)"/><rect class="f" width="191.693" height="1.033" transform="translate(262.548 298.967)"/><path class="f" d="M982.089,144.506c-2.98,8.823-7.55,16.863-16.863,16.863s-16.338-7.565-16.863-16.863c-.671-11.881,7.335-16.912,16.863-16.863C976.48,127.7,985.626,134.035,982.089,144.506Z" transform="translate(-561.356 -113.892)"/><rect class="f" width="33.282" height="42.157" transform="translate(387.007 29.283)"/><path class="g" d="M1026.033,238.7h2.831a25.2,25.2,0,0,1,3.774,20.759c-3.145,11.952-.629,14.154-.629,14.154s4.095,12.943-.309,32.445,4.083,24.8,4.083,24.8l-7.864-15.727-4.4-41.519Z" transform="translate(-604.767 -178.008)"/><path class="h" d="M1026.033,241.146h2.831a25.2,25.2,0,0,1,3.774,20.759c-3.145,11.952-.629,14.154-.629,14.154S1036.1,289,1031.7,308.5s4.083,24.8,4.083,24.8l-7.864-15.727-4.4-41.519Z" transform="translate(-604.767 -179.421)"/><path class="i" d="M982.4,202.535s-2.516,10.065-1.258,10.065,5.662,5.347,5.662,5.347l2.831,10.38-2.2,7.549-7.549-1.573-9.436-10.38-2.831-2.831-2.516-9.122s3.145-3.774.944-6.92S982.4,202.535,982.4,202.535Z" transform="translate(-571.041 -157.1)"/><path class="j" d="M982.4,202.535s-2.516,10.065-1.258,10.065,5.662,5.347,5.662,5.347l2.831,10.38-2.2,7.549-7.549-1.573-9.436-10.38-2.831-2.831-2.516-9.122s3.145-3.774.944-6.92S982.4,202.535,982.4,202.535Z" transform="translate(-571.041 -157.1)"/><path class="i" d="M797.263,237.179l-6.92-11.323s-7.47-16.527-12.817-10.551,8.1,18.1,8.1,18.1l6.92,9.122Z" transform="translate(-462.023 -163.75)"/><path class="i" d="M989.963,491.024l-5.034,36.8s.629,2.831-5.662,13.211-23.276,33.026-23.276,33.026l-5.033-9.436s5.976-29.881,16.356-36.172l-1.258-45.293Z" transform="translate(-562.877 -319.145)"/><path class="j" d="M989.963,491.024l-5.034,36.8s.629,2.831-5.662,13.211-23.276,33.026-23.276,33.026l-5.033-9.436s5.976-29.881,16.356-36.172l-1.258-45.293Z" transform="translate(-562.877 -319.145)"/><path class="f" d="M929.049,666.973l6.92,13.21s-5.662,16.042-3.46,17.614,5.032,15.727-.944,14.154-10.694-7.863-10.694-8.807,3.46-14.154,1.573-17.3a15.267,15.267,0,0,0-3.145-4.089l-4.718,7.864-1.573-.944,7.863-13.211s.944-2.516,4.718-4.089Z" transform="translate(-540.966 -425.267)"/><path class="j" d="M929.049,666.973l6.92,13.21s-5.662,16.042-3.46,17.614,5.032,15.727-.944,14.154-10.694-7.863-10.694-8.807,3.46-14.154,1.573-17.3a15.267,15.267,0,0,0-3.145-4.089l-4.718,7.864-1.573-.944,7.863-13.211s.944-2.516,4.718-4.089Z" transform="translate(-540.966 -425.267)"/><path class="i" d="M952.813,485.8s2.443,34.788-2.9,43.909v45.293l-7.234.944s-14.61-23.979-9.262-47.57-5.521-45.219-5.521-45.219Z" transform="translate(-549.559 -319.146)"/><circle class="i" cx="13.211" cy="13.211" r="13.211" transform="translate(388.24 26.72)"/><path class="k" d="M894.739,242.169,881.528,225.5l-7.549-5.033-3.147,4.089-8.807,2.516s-5.662,1.258-11.638,8.178-16.67,11.009-16.67,11.009l-8.807-1.573s-10.38-4.718-10.38-5.976-9.121,8.492-6.92,12.267,6.92,8.493,9.436,11.009,3.46,9.751,18.872,7.549,21.074-9.751,21.074-9.751,2.831,14.469,11.009,17.3,34.913,4.718,34.913,4.718l5.662-18.872s6.291-8.178-2.2-20.13a78.874,78.874,0,0,0-1.076-11.133c-.355-1.73-.824-3.122-1.44-3.65-2.2-1.887-13.84-5.033-13.84-5.033s1.887,6.291,2.831,6.605S895.994,240.6,894.739,242.169Z" transform="translate(-479.919 -167.482)"/><path class="f" d="M906.808,410.917c15.84-1.1,25.062,1.494,29.177,3.472a10.434,10.434,0,0,1,2.145,1.3c.3.255.447.453.447.572,0,.944,21.7,2.831,29.566.944s-5.347-42.462-8.807-45.922-1.595-16.123-1.595-16.123-6.9-1.491-8.785-.862-11.638-.944-15.1-2.831-7.863-.629-10.694-1.258a1.778,1.778,0,0,0-2.221.8,5.439,5.439,0,0,1-2.151,2.173c-6.678,3.847-12.037,30.444-16.073,45.148C898.316,414.377,906.808,410.917,906.808,410.917Z" transform="translate(-534.295 -242.341)"/><path class="f" d="M968.231,693.763l1.258,6.92s6.607,9.437,4.718,17.3c0,0,1.573,10.38,7.234,13.211s.944,9.436-4.4,9.121-10.38.315-11.009-1.258-4.4-16.985-4.4-16.985l-1.033,18.036-3.145.315,1.033-20.866s-2.516-4.718.943-12.581l-.873-12.07S967.287,696.909,968.231,693.763Z" transform="translate(-566.623 -440.734)"/><path class="j" d="M983.154,475.722a10.428,10.428,0,0,1,2.145,1.3c.167-2.972,1.129-20.948-.025-20.659Z" transform="translate(-581.464 -303.673)"/><path class="f" d="M946.892,144.805s-.146-.814-5.868,1.331-9.152,17.98-6.291,27.278c1.153,3.747.215,6.449-1.316,8.339-5.744,7.094-3.483,17.748,4.884,21.4q.354.154.723.305L942.6,205.6a16.355,16.355,0,0,1-2.278-13.672,39.343,39.343,0,0,0,.71-20.14c-.262-1.124-.559-2.282-.9-3.464-2.861-10.013-1.47-8.857,8.544-18.87a63.65,63.65,0,0,0,10.729,6.437c5.007,2.146,9.3,4.291,5.722,11.444s-12.159,13.589-6.437,22.888,6.437,5.722,5.722,9.3h0L963.7,203.1l4.291-4.291-2.861,5.722s9.3,0,12.159-7.152l1.43,1.43s5.722-10.013-5.007-19.311c0,0-3.576-2.146,1.43-9.3s1.161-22.53-5.276-25.391S946.892,144.805,946.892,144.805Z" transform="translate(-550.911 -123.066)"/><circle class="f" cx="6.656" cy="6.656" r="6.656" transform="translate(397.213 3.989)"/><path class="f" d="M967.6,102.8a6.657,6.657,0,0,1,5.99-6.623c-.218-.022-.44-.034-.665-.034a6.656,6.656,0,0,0,0,13.313c.225,0,.447-.012.666-.034A6.657,6.657,0,0,1,967.6,102.8Z" transform="translate(-571.713 -95.708)"/><path class="e" d="M762.409,154.326a14.08,14.08,0,0,0-14.08,14.08c0,7.776,14.08,33.44,14.08,33.44s14.08-25.664,14.08-33.44a14.08,14.08,0,0,0-14.08-14.08Zm0,21.472a7.392,7.392,0,1,1,7.392-7.392,7.392,7.392,0,0,1-7.392,7.392Z" transform="translate(-445.891 -129.297)"/><circle class="l" cx="7.619" cy="7.619" r="7.619" transform="translate(195.395 271.772)"/><circle class="l" cx="7.619" cy="7.619" r="7.619" transform="translate(242.795 239.545)"/><circle class="l" cx="7.619" cy="7.619" r="7.619" transform="translate(184.177 209.539)"/></g></svg>