<svg xmlns="http://www.w3.org/2000/svg" xmlns:xlink="http://www.w3.org/1999/xlink" width="389.813" height="300" viewBox="0 0 389.813 300"><defs><style>.a{fill:#ffb8b8;}.b{fill:#2f2e41;}.c{fill:#627de6;}.d{opacity:0.1;}.e{fill:#3f3d56;}.f{fill:url(#a);}.g{fill:#e6e6e6;}.h{fill:#fff;}.i{fill:#f2f2f2;}.j{fill:#e77152;}</style><linearGradient id="a" x2="0.5" y2="1" gradientUnits="objectBoundingBox"><stop offset="0" stop-color="#627de6"/><stop offset="1" stop-color="#30baa8"/></linearGradient></defs><g transform="translate(0 0)"><path class="a" d="M100.635,552.867h6.24l2.969-24.069h-9.21Z" transform="translate(-49.412 -259.649)"/><path class="b" d="M314.575,726.379h12.289a7.831,7.831,0,0,1,7.831,7.832v.254h-20.12Z" transform="translate(-264.945 -435.198)"/><path class="a" d="M50.635,552.867h6.24L59.843,528.8h-9.21Z" transform="translate(-24.862 -259.649)"/><path class="b" d="M264.575,726.379h12.289a7.831,7.831,0,0,1,7.831,7.832v.254h-20.12Z" transform="translate(-240.394 -435.198)"/><path class="b" d="M262.523,620.736a2.293,2.293,0,0,1-2.282-2.152l-5.531-90.46,37.226,4.017,5.49,81.088a2.3,2.3,0,0,1-1.823,2.4l-7.386,1.521a2.291,2.291,0,0,1-2.715-1.832l-9.025-49.473a.239.239,0,0,0-.26-.208.244.244,0,0,0-.243.227l-5.388,51.064a2.287,2.287,0,0,1-1.611,1.951l-5.779,1.758A2.3,2.3,0,0,1,262.523,620.736Z" transform="translate(-235.55 -337.852)"/><circle class="a" cx="12.501" cy="12.501" r="12.501" transform="translate(15.178 98.673)"/><path class="c" d="M245.615,473.362l-8.445-45.387a19.211,19.211,0,0,1,13.54-22.02h0a19.269,19.269,0,0,1,24.434,15.473l8.072,50.823Z" transform="translate(-226.773 -277.485)"/><path class="a" d="M255.758,531.705a5.118,5.118,0,0,1-.889-7.8l-8.345-16.161,9.4,1,6.484,15.193a5.146,5.146,0,0,1-6.648,7.763Z" transform="translate(-231.531 -327.846)"/><path class="c" d="M244.47,478.435a2.293,2.293,0,0,1-1.626-.918l-9.952-13.454a23.6,23.6,0,0,1-4.549-15.98l1.548-18.788a7.378,7.378,0,0,1,14.622-1.994l-.905,29.887,6.381,15.126a2.3,2.3,0,0,1-.556,2.572l-3.193,2.95a2.293,2.293,0,0,1-1.235.586,2.264,2.264,0,0,1-.535.012Z" transform="translate(-222.564 -285.212)"/><path class="a" d="M392.433,353.437A5.118,5.118,0,0,1,385.6,357.3l-11.628,13.986-2.741-9.046,11.462-11.895a5.146,5.146,0,0,1,9.74,3.1Z" transform="translate(-292.763 -249.074)"/><path class="c" d="M346.5,368.416a2.293,2.293,0,0,1-.211,1.856l-8.509,14.41a23.6,23.6,0,0,1-12.942,10.42l-17.9,5.9a7.379,7.379,0,1,1-7.538-12.687l27.875-10.819,11.441-11.774a2.3,2.3,0,0,1,2.586-.491l3.962,1.79a2.293,2.293,0,0,1,1.021.909A2.266,2.266,0,0,1,346.5,368.416Z" transform="translate(-255.718 -257.769)"/><path class="d" d="M34.459,303.589l.509,16.287,9.376,16.293-7.829-18.157Z" transform="translate(-16.92 -149.067)"/><path class="b" d="M257.777,360.126a3.269,3.269,0,0,0,3.578-2.393,4.97,4.97,0,0,1,3.538-3.7c2.293-.524,5.1.555,6.776-1.182a3.378,3.378,0,0,0,.8-2.974,6.828,6.828,0,0,0-2.832-3.984,17.337,17.337,0,0,0-9.6-3.589,34.447,34.447,0,0,0-5.406.269,23.93,23.93,0,0,0-5.529,1.011,13.018,13.018,0,0,0-8.145,9.508,15.029,15.029,0,0,0,3.083,12.282,16.136,16.136,0,0,0,6.19,4.713,2.415,2.415,0,0,0,1.835.093c1.505-.6,1.259-2.463.573-3.707-.734-1.331-1.865-2.619-1.274-4.239a3.207,3.207,0,0,1,1.592-1.713,8.205,8.205,0,0,1,4.779-.4Z" transform="translate(-228.666 -246.603)"/><path class="e" d="M743.012,441.362H520.586a8.663,8.663,0,0,1-8.653-8.653V162.948a8.663,8.663,0,0,1,8.653-8.653H743.012a8.662,8.662,0,0,1,8.653,8.653V432.709A8.663,8.663,0,0,1,743.012,441.362ZM520.586,155.313a7.643,7.643,0,0,0-7.635,7.635V432.709a7.643,7.643,0,0,0,7.635,7.635H743.012a7.643,7.643,0,0,0,7.635-7.635V162.948a7.643,7.643,0,0,0-7.635-7.635Z" transform="translate(-361.851 -154.295)"/><rect class="e" width="238.713" height="1.018" transform="translate(150.591 21.169)"/><circle class="f" cx="4.072" cy="4.072" r="4.072" transform="translate(158.226 7.126)"/><circle class="f" cx="4.072" cy="4.072" r="4.072" transform="translate(170.95 7.126)"/><circle class="f" cx="4.072" cy="4.072" r="4.072" transform="translate(183.675 7.126)"/><path class="e" d="M738.613,256.529H579.81a6.617,6.617,0,1,1,0-13.234h158.8a6.617,6.617,0,1,1,0,13.234Zm-158.8-12.216a5.6,5.6,0,0,0,0,11.2h158.8a5.6,5.6,0,0,0,0-11.2Z" transform="translate(-391.931 -197.996)"/><path class="g" d="M735.858,369.085H581.127a8.408,8.408,0,0,1-8.4-8.4V327.6a8.408,8.408,0,0,1,8.4-8.4H735.858a8.408,8.408,0,0,1,8.4,8.4v33.084A8.408,8.408,0,0,1,735.858,369.085Z" transform="translate(-391.703 -235.269)"/><path class="g" d="M735.858,495.085H581.127a8.408,8.408,0,0,1-8.4-8.4V453.6a8.408,8.408,0,0,1,8.4-8.4H735.858a8.408,8.408,0,0,1,8.4,8.4v33.084A8.408,8.408,0,0,1,735.858,495.085Z" transform="translate(-391.703 -297.137)"/><path class="g" d="M735.858,621.085H581.127a8.408,8.408,0,0,1-8.4-8.4V579.6a8.408,8.408,0,0,1,8.4-8.4H735.858a8.408,8.408,0,0,1,8.4,8.4v33.084A8.408,8.408,0,0,1,735.858,621.085Z" transform="translate(-391.703 -359.005)"/><path class="h" d="M561.858,361.085H407.127a8.408,8.408,0,0,1-8.4-8.4V319.6a8.408,8.408,0,0,1,8.4-8.4H561.858a8.408,8.408,0,0,1,8.4,8.4v33.084A8.408,8.408,0,0,1,561.858,361.085Z" transform="translate(-306.266 -231.341)"/><path class="e" d="M561.612,361.094H406.881a8.662,8.662,0,0,1-8.653-8.653V319.358a8.662,8.662,0,0,1,8.653-8.653H561.612a8.662,8.662,0,0,1,8.653,8.653v33.084A8.662,8.662,0,0,1,561.612,361.094ZM406.881,311.723a7.643,7.643,0,0,0-7.635,7.635v33.084a7.643,7.643,0,0,0,7.635,7.635H561.612a7.643,7.643,0,0,0,7.635-7.635V319.358a7.643,7.643,0,0,0-7.635-7.635Z" transform="translate(-306.02 -231.095)"/><path class="i" d="M561.192,360.307H444.126a8.408,8.408,0,0,1-8.4-8.4V334.6a8.408,8.408,0,0,1,8.4-8.4H561.192a8.408,8.408,0,0,1,8.4,8.4v17.305A8.408,8.408,0,0,1,561.192,360.307Z" transform="translate(-324.433 -238.706)"/><circle class="j" cx="10.043" cy="10.043" r="10.043" transform="translate(134.842 92.187)"/><path class="e" d="M568.862,365.393,554.686,353.5l-13.932-11.684a2.036,2.036,0,0,0-2.623.005l-13.887,11.738-3.392,2.867-5.114-4.289L500.2,339.1a2.036,2.036,0,0,0-2.622.005l-15.492,13.1-15.736,13.3a.509.509,0,0,0,.33.9l32.263-.062,10.212-.02-.1.084,30.441-.059,29.046-.056a.509.509,0,0,0,.326-.9Z" transform="translate(-339.378 -244.806)"/><path class="e" d="M315.3,742.723H217.576a.509.509,0,1,1,0-1.018H315.3a.509.509,0,0,1,0,1.018Z" transform="translate(-217.067 -442.723)"/></g></svg>