<svg xmlns="http://www.w3.org/2000/svg" xmlns:xlink="http://www.w3.org/1999/xlink" width="440.959" height="300" viewBox="0 0 440.959 300"><defs><style>.a{fill:#f2f2f2;}.b{fill:#fff;}.c{fill:#2f2e41;}.d{fill:#a0616a;}.e{fill:#ccc;}.f{fill:#3f3d56;}.g{fill:#6c63ff;}.h{fill:url(#a);}.i{fill:#e6e6e6;}.j{fill:#ffb8b8;}.k{opacity:0.2;}.l{fill:#f253a3;}</style><linearGradient id="a" x1="0.174" x2="0.697" y2="1" gradientUnits="objectBoundingBox"><stop offset="0" stop-color="#627de6"/><stop offset="1" stop-color="#30baa8"/></linearGradient></defs><g transform="translate(0 0)"><path class="a" d="M242.936,241.017H357.481a5.871,5.871,0,0,1,5.864,5.864V416.733a5.871,5.871,0,0,1-5.864,5.864H242.936a5.871,5.871,0,0,1-5.864-5.864V246.881A5.871,5.871,0,0,1,242.936,241.017Z" transform="translate(-237.072 -217.975)"/><path class="b" d="M247.113,248.038h111.7a3.024,3.024,0,0,1,3.021,3.021V418.067a3.024,3.024,0,0,1-3.021,3.021h-111.7a3.024,3.024,0,0,1-3.021-3.021V251.059A3.024,3.024,0,0,1,247.113,248.038Z" transform="translate(-239.828 -220.73)"/><path class="c" d="M348.191,331.485c0,10.736-9.928,9.113-22.174,9.113s-22.174,1.624-22.174-9.113,4.849-29.768,22.174-29.768C343.938,301.717,348.191,320.748,348.191,331.485Z" transform="translate(-263.28 -241.799)"/><path class="d" d="M393.406,459.613a6.526,6.526,0,0,0-3.8-9.258l-25.4-53.739-11.62,8.148,28.625,50.261a6.562,6.562,0,0,0,12.2,4.587Z" transform="translate(-282.41 -279.047)"/><path class="e" d="M368.242,393.266l-1.452-2.272-.741-1.166-5.7-8.942a8.125,8.125,0,1,0-14.854,6.591l1.306,4.66,2.667,9.526a2.856,2.856,0,0,0,.984,1.482,2.656,2.656,0,0,0,.6.377,2.911,2.911,0,0,0,2.393.043l.043-.018,6.9-3.086.012-.006,5.267-2.357,1.312-.583a2.86,2.86,0,0,0,.984-.723,2.825,2.825,0,0,0,.619-1.112A2.889,2.889,0,0,0,368.242,393.266Z" transform="translate(-279.352 -270.976)"/><path class="c" d="M319.841,528.891a2.929,2.929,0,0,0-4.988-.049,2.381,2.381,0,0,0-.273.559l-.346.954h6.488Z" transform="translate(-267.358 -330.409)"/><circle class="d" cx="14.921" cy="14.921" r="14.921" transform="translate(47.677 68.34)"/><path class="f" d="M353.153,396.973c-.036-.535-.085-1.063-.146-1.58a33.164,33.164,0,0,0-1.167-5.8c-.115-.413-.243-.814-.383-1.209a32.385,32.385,0,0,0-8.967-13.632,8.853,8.853,0,0,0-5.911-2.26h-21.02a8.859,8.859,0,0,0-8.73,10.364c-.006.006-.006.006,0,.012a8.8,8.8,0,0,0,.808,2.442l.85,1.695,5.7,11.4,7.089,14.179.413.826,26.42,7.266.109-.249c.1-.219.2-.443.292-.662.146-.328.286-.656.425-.978a51.785,51.785,0,0,0,4.228-16.895v-.006A38.946,38.946,0,0,0,353.153,396.973Z" transform="translate(-264.402 -269.58)"/><path class="c" d="M348.81,443.151a2.84,2.84,0,0,0-.419-.863,11.357,11.357,0,0,0-2.412-2.381l-.006-.006c-3.2-2.43-9.556-5.261-21.834-5.334h-.018a2.932,2.932,0,0,0-2.667,1.719l-.3.662-1.956,4.3a2.267,2.267,0,0,1-.759.917c-3.1,2.2-18.14,14.531-9.313,41.608.863,2.643,1.75,5.528,2.649,8.6q.219.747.438,1.513h26.463l-.565-4.252a2.252,2.252,0,0,1,.043-.832L348.8,444.858l.049-.188a2.926,2.926,0,0,0-.037-1.519Z" transform="translate(-264.275 -293.943)"/><path class="f" d="M388.716,367.717h11.543a1.823,1.823,0,0,1,1.823,1.822v3.038a.609.609,0,0,1,.607.608V374.4a.609.609,0,0,1-.608.608v1.215a.609.609,0,0,1,.608.608v1.215a.609.609,0,0,1-.608.607v16.4a1.823,1.823,0,0,1-1.822,1.822H388.716a1.823,1.823,0,0,1-1.823-1.822V369.54a1.823,1.823,0,0,1,1.822-1.823Z" transform="translate(-295.877 -267.704)"/><path class="g" d="M388.109,395.055V369.54a1.823,1.823,0,0,1,1.822-1.823h-1.215a1.823,1.823,0,0,0-1.823,1.822v25.515a1.823,1.823,0,0,0,1.822,1.823h1.215a1.823,1.823,0,0,1-1.822-1.822Z" transform="translate(-295.877 -267.704)"/><circle class="b" cx="2.43" cy="2.43" r="2.43" transform="translate(95.877 106.088)"/><path class="d" d="M365.047,394.051a6.4,6.4,0,0,0-.525.859L334.609,398.5l-4.4-5.85-9.7,5.485,6.781,11.113a4.86,4.86,0,0,0,5.418,2.16l33.087-8.952a6.377,6.377,0,1,0-.752-8.408Z" transform="translate(-269.823 -277.02)"/><path class="f" d="M328.7,387.366,320.316,376.5a7.592,7.592,0,0,0-13.723,6.4c-.006.006-.006.006,0,.012a6.907,6.907,0,0,0,.449.96l1.209,3.177,3.675,9.69a2.721,2.721,0,0,0,1.622,1.6,2.464,2.464,0,0,0,.4.109,2.7,2.7,0,0,0,1.865-.292l2.661-1.488,9.392-5.249a2.742,2.742,0,0,0,.832-4.058Z" transform="translate(-264.163 -269.626)"/><path class="c" d="M311.843,332.157h5.9l2.6-8.972.521,8.972h2.821l1.519-5.234.3,5.234h20.959c0-10.736-7.072-19.44-15.8-19.44h-3.038C318.914,312.717,311.843,321.421,311.843,332.157Z" transform="translate(-266.42 -246.117)"/><path class="e" d="M513.022,277.722H389.341a5.871,5.871,0,0,1-5.864-5.864V208.951a5.871,5.871,0,0,1,5.864-5.864H513.022a5.871,5.871,0,0,1,5.864,5.864v62.907a5.871,5.871,0,0,1-5.864,5.864Z" transform="translate(-294.536 -203.087)"/><path class="b" d="M514.357,276.213H393.519a3.024,3.024,0,0,1-3.021-3.021V213.128a3.024,3.024,0,0,1,3.021-3.021H514.357a3.024,3.024,0,0,1,3.021,3.021v60.063A3.024,3.024,0,0,1,514.357,276.213Z" transform="translate(-297.292 -205.843)"/><path class="e" d="M403.877,335.768a2.278,2.278,0,0,1-.874-.177,2.211,2.211,0,0,1-1.386-2.074V321.955l17.423-.44-13.59,13.59A2.215,2.215,0,0,1,403.877,335.768Z" transform="translate(-301.656 -249.57)"/><path class="e" d="M528.829,256.407H467.7a2.843,2.843,0,0,1,0-5.686h61.129a2.843,2.843,0,1,1,0,5.686Z" transform="translate(-326.477 -221.783)"/><path class="e" d="M508.927,236.516H467.7a2.843,2.843,0,0,1,0-5.686h41.227a2.843,2.843,0,1,1,0,5.686Z" transform="translate(-326.477 -213.976)"/><circle class="h" cx="8.885" cy="8.885" r="8.885" transform="translate(107.032 16.854)"/><circle class="i" cx="2.843" cy="2.843" r="2.843" transform="translate(180.671 52.095)"/><circle class="i" cx="2.843" cy="2.843" r="2.843" transform="translate(190.622 52.095)"/><circle class="i" cx="2.843" cy="2.843" r="2.843" transform="translate(200.573 52.095)"/><path class="a" d="M760.936,398.017H875.481a5.871,5.871,0,0,1,5.864,5.864V573.733a5.871,5.871,0,0,1-5.864,5.864H760.936a5.871,5.871,0,0,1-5.864-5.864V403.881A5.871,5.871,0,0,1,760.936,398.017Z" transform="translate(-440.386 -279.597)"/><path class="b" d="M765.113,405.038h111.7a3.024,3.024,0,0,1,3.021,3.021V575.067a3.024,3.024,0,0,1-3.021,3.021h-111.7a3.024,3.024,0,0,1-3.021-3.021V408.058a3.024,3.024,0,0,1,3.021-3.02Z" transform="translate(-443.142 -282.353)"/><path class="e" d="M688.947,491.352H565.266a5.871,5.871,0,0,1-5.864-5.864V422.581a5.871,5.871,0,0,1,5.864-5.864H688.947a5.871,5.871,0,0,1,5.864,5.864v62.907A5.871,5.871,0,0,1,688.947,491.352Z" transform="translate(-363.586 -286.937)"/><path class="b" d="M690.281,489.842H569.443a3.024,3.024,0,0,1-3.021-3.021V426.758a3.024,3.024,0,0,1,3.021-3.021H690.281a3.024,3.024,0,0,1,3.021,3.021v60.063A3.024,3.024,0,0,1,690.281,489.842Z" transform="translate(-366.342 -289.692)"/><path class="e" d="M750,548.735l-13.59-13.59,17.423.44v11.562a2.211,2.211,0,0,1-1.386,2.074,2.277,2.277,0,0,1-.873.177A2.214,2.214,0,0,1,750,548.735Z" transform="translate(-433.064 -333.419)"/><path class="e" d="M704.754,470.037H643.625a2.843,2.843,0,1,1,0-5.686h61.129a2.843,2.843,0,1,1,0,5.686Z" transform="translate(-395.528 -305.633)"/><path class="e" d="M684.852,450.146H643.625a2.843,2.843,0,1,1,0-5.686h41.227a2.843,2.843,0,0,1,0,5.686Z" transform="translate(-395.528 -297.826)"/><circle class="h" cx="8.885" cy="8.885" r="8.885" transform="translate(213.907 146.634)"/><circle class="i" cx="2.843" cy="2.843" r="2.843" transform="translate(287.545 181.875)"/><circle class="i" cx="2.843" cy="2.843" r="2.843" transform="translate(297.496 181.875)"/><circle class="i" cx="2.843" cy="2.843" r="2.843" transform="translate(307.448 181.875)"/><path class="j" d="M774.21,595.129a6.109,6.109,0,0,1,9.307-1.06l19.291-9.957-1.2,11.217-18.135,7.736a6.142,6.142,0,0,1-9.264-7.936Z" transform="translate(-447.49 -352.639)"/><path class="f" d="M844,518.948a8.809,8.809,0,0,0-10.54-.237,9.128,9.128,0,0,0-1.853,1.774L814.672,551.9l-15.631,11.81a2.727,2.727,0,0,0-1.021,1.586,2.692,2.692,0,0,0,.055,1.4l1.537,4.957a2.757,2.757,0,0,0,.923,1.349,3.113,3.113,0,0,0,.547.328.378.378,0,0,0,.073.03,2.716,2.716,0,0,0,2.157-.006l18.322-7.946.2-.091a28.145,28.145,0,0,0,14.051-13.7l9.635-20.333A8.817,8.817,0,0,0,844,518.948Z" transform="translate(-457.217 -326.327)"/><circle class="j" cx="14.921" cy="14.921" r="14.921" transform="translate(373.805 151.203)"/><path class="c" d="M869.357,632.886l-.152-1.16-.7-5.291-.772-5.777-2.74.468-1.057.176-1.069.182-.352.061-27.18,4.617-3.384-2.035-.073-.042.031.31.638,6.616,3.043,31.6h37.738Z" transform="translate(-470.531 -366.983)"/><path class="f" d="M879.394,528.588a21.052,21.052,0,0,0-7.138-14,19.865,19.865,0,0,0-14.367-4.957,14.565,14.565,0,0,0-11.524,6.142,21.045,21.045,0,0,0-2.989,6.585c-3.025,10.886-6.215,26.833-8.638,40.022-1.361,7.363-2.479,13.869-3.2,18.152-.012.091-.024.176-.042.267-.28,1.671-.492,2.977-.632,3.846a2.724,2.724,0,0,0,1.27,2.77c.006.006.018.012.024.018a20.093,20.093,0,0,0,10.139,2.849c4.326,0,9.514-1.507,14.975-6.373a2.141,2.141,0,0,1,2.74-.115l.6.462,5.88,4.575a2.726,2.726,0,0,0,1.6.577,2.433,2.433,0,0,0,.857-.115.325.325,0,0,0,.073-.018,2.72,2.72,0,0,0,1.774-1.841c.328-1.142.692-2.46,1.093-3.93.164-.614.334-1.258.51-1.926.772-2.953,1.628-6.379,2.467-10.109C877.79,558.434,880.572,541.685,879.394,528.588Z" transform="translate(-470.119 -323.392)"/><path class="j" d="M870.314,626.35a6.109,6.109,0,0,1,6.67-6.577l9.035-19.74L892,609.6l-9.5,17.278a6.142,6.142,0,0,1-12.187-.528Z" transform="translate(-485.611 -358.888)"/><path class="f" d="M905.555,548.458l-4.969-21.949a8.827,8.827,0,0,0-7.861-8.724c-.31-.03-.626-.049-.948-.049a8.825,8.825,0,0,0-8.8,8.863l6.063,35.168-.018.073-3.214,12.132-1.78,6.737a1,1,0,0,0-.036.194,2.634,2.634,0,0,0,.213,1.671,2.692,2.692,0,0,0,.911,1.081l3.444,2.381.82.571a2.708,2.708,0,0,0,1.555.486,2.845,2.845,0,0,0,.638-.073l.067-.018a2.681,2.681,0,0,0,.717-.3,2.729,2.729,0,0,0,.984-1.033l9.513-17.563a28.207,28.207,0,0,0,2.7-19.647Z" transform="translate(-490.588 -326.587)"/><path class="k" d="M646.323,353.651l5.468,23.085-7.9,19.44,5.467-18.833Z" transform="translate(-252.727 -138.808)"/><path class="c" d="M877.406,472.744a10.049,10.049,0,0,0,3.383-2.028c.434-.388.9-.748,1.334-1.135,3.826-3.422,4.976-9.307,3.268-14.148a17.4,17.4,0,0,0-10.8-10.239,25.12,25.12,0,0,0-15.155,0c-5.306,1.555-10.62,5.056-11.88,10.439a4.836,4.836,0,0,0,.628,4.232,2.675,2.675,0,0,0,1.114.817c1.719.659,2.678-.686,3.961-1.258a4.588,4.588,0,0,1,5.163,1.553,9.875,9.875,0,0,1,1.871,5.392,14.25,14.25,0,0,0,.553,3.5,3.487,3.487,0,0,0,2.436,2.362,3.98,3.98,0,0,0,3.586-1.8,27.74,27.74,0,0,1,2.517-3.38c1.029-.96,2.707-1.467,3.835-.625a4.216,4.216,0,0,1,.942,1.131c1.729,2.656,1.518,2.54,3.247,5.2Z" transform="translate(-476.604 -297.653)"/><path class="f" d="M771.71,581.115l-10.527,4.736a1.823,1.823,0,0,0-.914,2.41l1.246,2.77a.609.609,0,0,0-.3.8l.5,1.108a.609.609,0,0,0,.8.3l.5,1.108a.609.609,0,0,0-.3.8l.5,1.108a.609.609,0,0,0,.8.3l6.73,14.958a1.823,1.823,0,0,0,2.41.914l10.526-4.736a1.823,1.823,0,0,0,.914-2.41L774.119,582.03a1.823,1.823,0,0,0-2.409-.915Z" transform="translate(-442.363 -351.4)"/><path class="l" d="M783.9,605.485l-1.482-3.3-3.888-8.639-3.414-7.588a1.748,1.748,0,0,0-2.308-.881l-5.8,2.606-2.655,1.2a1.751,1.751,0,0,0-.875,2.309l3.53,7.849,1.355,3.007,3.9,8.675a1.756,1.756,0,0,0,2.315.875l8.444-3.8a1.749,1.749,0,0,0,.875-2.308Z" transform="translate(-443.629 -352.959)"/></g></svg>